<svg id="Layer_1" data-name="Layer 1" xmlns="http://www.w3.org/2000/svg" viewBox="0 0 243.52 158.65"><path d="M100.79,158.68c-13.6,7.54-22.51.7-23.24-10.75-13.16-2.64-17.25-10.67-10.28-22.08a11.92,11.92,0,0,1-2.69-1.74c-6-6.49-4.84-15.69,2.86-20,7-3.86,14.21-7.23,21.47-10.52,1.24-.56,3.18.4,4.8.66-.71,1.58-1,3.95-2.22,4.62-6.11,3.37-12.46,6.3-18.73,9.36-4.8,2.34-6.65,5.77-5,9.34,1.82,4,5.4,4.84,10.56,2.35q18.85-9.1,37.66-18.33c2.17-1.06,4.69-2.44,5.69.76.36,1.14-1.52,3.81-3,4.56-12.91,6.51-25.95,12.75-39,19.07-1.5.73-3,1.42-4.49,2.18-4.63,2.4-6.19,5.51-4.58,9,1.78,3.92,5.37,4.93,10.14,2.68,12.33-5.81,24.64-11.69,37-17.53,4.05-1.92,8-4.08,12.23-5.6,1.6-.58,3.74.33,5.63.56-1,1.59-1.56,3.93-3,4.65-12.58,6.43-25.31,12.57-38,18.8-2.09,1-4.21,2-6.26,3.11-3.59,1.91-5.26,4.82-3.3,8.65s5.29,4.46,9,2.71c11.4-5.44,22.74-11,34.1-16.54,3.89-1.89,7.66-4,11.67-5.61,1.43-.55,3.41.31,5.14.52-.88,1.68-1.33,4.17-2.72,4.9-9.57,5-19.34,9.63-29,14.41-4.94,2.44-6.41,5.61-4.45,9.4,1.82,3.53,5.44,4.4,9.86,2.19,22.6-11.32,45.61-21.92,67.58-34.36,11.43-6.47,21.06-16.14,31.27-24.64,1-.8.89-3.94.17-5.46-10.26-21.45-20.7-42.8-31.12-64.17-2.92-6-2.88-6.32,3.21-9.34,8.19-4.07,16.48-7.94,24.61-12.14,3.16-1.63,5.07-1.44,6.72,2q17.24,35.45,34.65,70.78c1.46,3,.65,4.61-2.2,5.85s-5.66,2.81-8.56,4a110.35,110.35,0,0,0-34.58,23.05c-14,13.69-31.64,21.88-49.12,30.16-12.47,5.91-24.8,12.09-37.2,18.14C111.39,174.56,105.47,172.16,100.79,158.68Zm90.79-126c11.29,22.88,22.27,45.14,33.39,67.7l24.22-11.8L216.07,21Z" transform="translate(-12.85 -12.97)"/><path d="M131.9,56.54c-4.65,5.89-8.21,11.85-13.13,16.35-11.15,10.19-24.42,9.93-37.95,5.62C79.66,78.13,79,76.17,78.11,75c1.46-.69,3-2,4.37-1.94,3,.23,5.8,1.51,8.75,1.87,15.79,1.94,27.93-5.31,33.52-20.59,1.75-4.81,3.73-5.81,8.36-4,7.74,3,15.63,5.65,23.54,8.18,9.13,2.92,14.5-.16,16.29-9.52-5.18-1.81-10.45-3.68-15.74-5.5-14.29-4.92-28.61-9.78-42.88-14.77-4.83-1.68-9.64-1.71-14,.74-7.81,4.37-15.72,4.91-24.6,1.46C73.86,35.93,72,40.79,70.3,45.72c-6.48,18.84-13,37.67-19.25,56.58-1.41,4.28-3.14,5.5-7.53,3.85-8.86-3.32-17.88-6.24-26.89-9.15-3.71-1.2-4.47-3.21-3.22-6.8Q26.16,53.48,38.66,16.66C40,12.75,42,12.36,45.43,13.6c11.11,4,22.37,7.49,33.41,11.63,5.89,2.21,11.28,2.2,16.78-.78,7-3.8,14.16-4,21.67-1.36,19,6.69,37.93,13.33,57,19.63,4.72,1.56,5.39,4.08,4.35,8.24-3.1,12.41-12,17.3-24.27,13.2C146.68,61.59,139,58.94,131.9,56.54ZM45.3,100.2c8.21-24,16.24-47.47,24.43-71.41L43.92,20.15,19.54,91.49Z" transform="translate(-12.85 -12.97)"/></svg>