<svg id="Layer_1" data-name="Layer 1" xmlns="http://www.w3.org/2000/svg" viewBox="0 0 243.59 158.62"><defs><style>.cls-1{fill:#fff;}</style></defs><path class="cls-1" d="M87.94,145.71c-13.6,7.54-22.51.7-23.24-10.75-13.16-2.64-17.25-10.67-10.28-22.08a11.92,11.92,0,0,1-2.69-1.74c-6-6.49-4.84-15.69,2.86-20,7-3.86,14.21-7.23,21.47-10.52,1.24-.56,3.18.4,4.8.66-.71,1.58-1,4-2.22,4.62-6.11,3.37-12.46,6.3-18.73,9.36-4.8,2.34-6.65,5.77-5,9.34,1.82,4,5.4,4.84,10.56,2.35q18.86-9.11,37.66-18.33c2.17-1.06,4.69-2.44,5.69.76.36,1.14-1.52,3.81-3,4.56-12.91,6.51-25.95,12.75-39,19.07-1.5.73-3,1.42-4.49,2.18-4.63,2.4-6.19,5.51-4.58,9,1.78,3.92,5.37,4.93,10.14,2.68,12.33-5.81,24.64-11.69,37-17.53,4-1.92,8-4.08,12.23-5.6,1.6-.58,3.74.33,5.63.56-1,1.59-1.56,3.93-3,4.65-12.58,6.43-25.31,12.57-38,18.8-2.09,1-4.21,2-6.26,3.11-3.59,1.91-5.26,4.82-3.3,8.65s5.29,4.46,9,2.71c11.4-5.44,22.74-11,34.1-16.54,3.89-1.89,7.66-4,11.67-5.61,1.43-.55,3.41.31,5.14.52-.88,1.68-1.33,4.17-2.72,4.9-9.57,5-19.34,9.63-29,14.41-4.94,2.44-6.41,5.61-4.45,9.4,1.82,3.53,5.44,4.4,9.86,2.19,22.6-11.32,45.61-21.92,67.58-34.36,11.43-6.47,21.06-16.14,31.27-24.64,1-.8.89-3.94.17-5.46-10.26-21.45-20.7-42.8-31.12-64.17-2.92-6-2.88-6.32,3.21-9.34,8.19-4.07,16.48-7.94,24.61-12.14,3.16-1.63,5.07-1.44,6.72,2q17.24,35.45,34.65,70.78c1.46,3,.65,4.61-2.2,5.85s-5.66,2.81-8.56,4a110.35,110.35,0,0,0-34.58,23c-14,13.69-31.64,21.88-49.12,30.16-12.47,5.91-24.8,12.09-37.2,18.14C98.54,161.59,92.62,159.19,87.94,145.71Zm90.79-126C190,42.59,201,64.85,212.12,87.41l24.22-11.8L203.22,8Z" transform="translate(0 0)"/><path class="cls-1" d="M119.05,43.57c-4.65,5.89-8.21,11.85-13.13,16.35C94.77,70.11,81.5,69.85,68,65.54c-1.16-.38-1.82-2.34-2.71-3.51,1.46-.69,3-2,4.37-1.94,3,.23,5.8,1.51,8.75,1.87,15.79,1.94,27.93-5.31,33.52-20.59,1.75-4.81,3.73-5.81,8.36-4,7.74,3,15.63,5.65,23.54,8.18,9.13,2.92,14.5-.16,16.29-9.52-5.18-1.81-10.45-3.68-15.74-5.5-14.29-4.92-28.61-9.78-42.88-14.77-4.83-1.68-9.64-1.71-14,.74-7.81,4.37-15.72,4.91-24.6,1.46-1.86,5-3.72,9.86-5.42,14.79C51,51.59,44.45,70.42,38.2,89.33c-1.41,4.28-3.14,5.5-7.53,3.85C21.81,89.86,12.79,86.94,3.78,84,.07,82.83-.69,80.82.56,77.23Q13.31,40.51,25.81,3.69C27.15-.22,29.15-.61,32.58.63,43.69,4.63,55,8.12,66,12.26c5.89,2.21,11.28,2.2,16.78-.78,7-3.8,14.16-4,21.67-1.36,19,6.69,37.93,13.33,57,19.63,4.72,1.56,5.39,4.08,4.35,8.24-3.1,12.41-12,17.3-24.27,13.2C133.83,48.62,126.15,46,119.05,43.57ZM32.45,87.23,56.88,15.82,31.07,7.18,6.69,78.52Z" transform="translate(0 0)"/></svg>