<svg id="Layer_1" data-name="Layer 1" xmlns="http://www.w3.org/2000/svg" viewBox="0 0 834.81923 666.97716"><defs><style>.cls-1{fill:#fff;}</style></defs><path class="cls-1" d="M515.24,135.5c-102.37-94-255.06-91.28-353.66-8.56C63.46,209.25,36,348.16,97.25,461.3c60.52,111.75,189.31,166.45,313.63,129.38,66.53-19.84,117.84-60.47,153.39-120s45.27-123.77,32.33-191.91a104.1801,104.1801,0,0,1,35-9.74c8.09-.73,16.29-.18,24.44-.41,3.56-.09,4.83,1.48,5.43,4.85a334.33982,334.33982,0,0,1,2.79,102Q650.91,478.09,582,555.39c-49,55-109.82,90.79-182.17,104.69-102.78,19.76-196.18-2.82-277.56-69C53.9,535.43,14.15,462.75,2.76,375.29-15.9,231.94,61.48,92.29,192.6,31.12A333.43,333.43,0,0,1,535.69,68.5c6.48,5,12.73,10.23,18.85,15.61,1.12,1,2,3.58,1.48,4.86C549.89,104.71,530.3,126.92,515.24,135.5Z" transform="translate(-0.00077 -0.0034)"/><path class="cls-1" d="M453.19,171.16,421.41,189c-9.74,5.45-19.53,10.81-29.2,16.38a8.2,8.2,0,0,1-7.88.64c-80.35-30.94-166,14.82-185.1,98.79-14.94,65.74,23.4,134.72,87.68,157.74,81.82,29.3,169.8-23.55,182.45-109.5.29-2,1.62-4.52,3.24-5.44,19.51-11.17,39.17-22.08,58.79-33a22.68641,22.68641,0,0,1,2.28-.93c9.6,60.82-19.53,155.79-110.92,201.08-91.11,45.18-202.92,14.7-257.83-69.76-56.59-87-40.19-200.21,39-266.52C282.18,112.89,388.26,121.08,453.19,171.16Z" transform="translate(-0.00077 -0.0034)"/><path class="cls-1" d="M761,5.17l-26.7,104L834.82,137.5c-1.67,1.2-2.59,2-3.63,2.59q-71,39.87-142.11,79.6a14.06994,14.06994,0,0,1-8.82,1.22c-42.09-8-81.9-1.83-119.31,19.07q-75.89,42.41-151.68,85c-3.23,1.8-4.72,3.68-4.78,7.65a71,71,0,0,1-70.76,69.57c-38.9.12-70.72-30.64-71.34-69.47-.45-28.11,11.89-49.77,36.09-63.59,23.93-13.64,48.47-12.58,72.24,1.36,3.12,1.83,5.19,2,8.43.17q75.54-42.56,151.26-84.84,56.31-31.59,78.85-92.12A14.00006,14.00006,0,0,1,615,86.9Q685,47.32,755.28,8.1C756.69,7.29,758.18,6.59,761,5.17Z" transform="translate(-0.00077 -0.0034)"/></svg>