<svg id="Layer_1" data-name="Layer 1" xmlns="http://www.w3.org/2000/svg" viewBox="0 0 834.81 667"><path d="M897.83,402c-102.37-94-255.06-91.28-353.66-8.56-98.12,82.31-125.6,221.22-64.33,334.36,60.52,111.75,189.31,166.45,313.63,129.38,66.53-19.84,117.84-60.47,153.39-120s45.27-123.77,32.33-191.91a104.14,104.14,0,0,1,35-9.74c8.09-.73,16.29-.18,24.44-.41,3.56-.09,4.83,1.48,5.43,4.85,6,33.89,7.23,67.91,2.79,102q-13.35,102.62-82.22,179.92c-49,55-109.82,90.79-182.17,104.69-102.78,19.76-196.18-2.82-277.56-69-68.41-55.65-108.16-128.33-119.55-215.79-18.66-143.35,58.72-283,189.84-344.17A333.42,333.42,0,0,1,918.28,335c6.48,5,12.73,10.23,18.85,15.61,1.12,1,2,3.58,1.48,4.86C932.48,371.21,912.89,393.42,897.83,402Z" transform="translate(-382.59 -266.5)"/><path d="M835.78,437.66c-10.93,6.15-21.35,12-31.78,17.86-9.74,5.45-19.53,10.81-29.2,16.38a8.2,8.2,0,0,1-7.88.64c-80.35-30.94-166,14.82-185.1,98.79-14.94,65.74,23.4,134.72,87.68,157.74,81.82,29.3,169.8-23.55,182.45-109.5.29-2,1.62-4.52,3.24-5.44,19.51-11.17,39.17-22.08,58.79-33a21.66,21.66,0,0,1,2.28-.93c9.6,60.82-19.53,155.79-110.92,201.08-91.11,45.16-202.92,14.68-257.83-69.76-56.59-87.05-40.19-200.21,39-266.52C664.77,379.39,770.85,387.58,835.78,437.66Z" transform="translate(-382.59 -266.5)"/><path d="M1143.56,271.67l-26.7,104L1217.41,404c-1.67,1.2-2.59,2-3.63,2.59q-71,39.87-142.11,79.6a14.11,14.11,0,0,1-8.82,1.22c-42.09-8-81.9-1.83-119.31,19.07q-75.88,42.4-151.68,85c-3.23,1.8-4.72,3.68-4.78,7.65a71,71,0,0,1-70.76,69.57c-38.9.12-70.72-30.64-71.34-69.47-.45-28.11,11.89-49.77,36.09-63.59C705,522,729.54,523.06,753.31,537c3.12,1.83,5.19,2,8.43.17Q837.28,494.61,913,452.33q56.31-31.59,78.85-92.12a14.06,14.06,0,0,1,5.73-6.81q70-39.58,140.29-78.8C1139.28,273.79,1140.77,273.09,1143.56,271.67Z" transform="translate(-382.59 -266.5)"/></svg>