<svg id="Layer_1" data-name="Layer 1" xmlns="http://www.w3.org/2000/svg" viewBox="0 0 594.75 896.93"><defs><style>.cls-1{fill:#fff;}</style></defs><path class="cls-1" d="M483.52,51.57C569.76,53.32,640,67.25,701.86,109.29c110.94,75.34,129.71,225.09,37.59,322.57C706,467.31,664.85,496,625.23,525.12c-32.37,23.78-57.09,51-70.45,89.81-16.14,46.89-50.48,64.57-96,54-39.15-9.08-61.46-42.42-59-88.49,2-38.1,18.75-70.17,45.94-95.19,34.69-31.93,72.61-60.31,108-91.47,15.5-13.63,30.55-28.85,41.87-45.95,43.63-65.95,3.72-148.37-74.89-156.82-77.65-8.35-114.68,12.26-148.32,81.88-7.52,15.56-15.05,31.42-24.95,45.48C327.24,347,288.74,356.84,251.8,344.6c-32.49-10.77-48.71-35.66-48.29-74C204,230,219.36,194.54,244.63,164,309.71,85.16,395.85,52.25,483.52,51.57Z" transform="translate(-203.51 -51.57)"/><path class="cls-1" d="M382.71,848.14C383.19,793.74,429,749,483.09,750c55.17,1.08,99.12,46.06,98.19,100.5-.94,55-45.27,98.16-100.64,98C426.47,948.3,382.23,903,382.71,848.14Z" transform="translate(-203.51 -51.57)"/></svg>