<svg id="Layer_1" data-name="Layer 1" xmlns="http://www.w3.org/2000/svg" viewBox="0 0 1073.45 803.78"><defs><style>.cls-1{fill:#353cdd;}</style></defs><path class="cls-1" d="M336.59,663.94a284.13,284.13,0,0,1,26.94-15.35,160.15,160.15,0,0,1,24.53-10.34c9.73-3,19.88-4.68,29.83-7,7.11-1.66,14.11-4.29,21.3-5,16.21-1.49,31.23-5.58,44.37-15.58,3.14-2.4,4.4-5.83,2.5-9.25a20.83,20.83,0,0,0-20.6-10.1c-8.19,1.24-16.3,3-24.49,4.29-9.76,1.54-19.59,2.63-29.33,4.26a159.23,159.23,0,0,0-16.52,3.93c-8.6,2.42-17.05,5.38-25.72,7.45-2,.47-5.37-1.15-6.77-2.89-2-2.45-1.89-5.83.76-8.4a12.79,12.79,0,0,1,3-2.5c17.77-8.68,35.55-17.36,53.41-25.88,3.93-1.88,8.28-2.88,12.2-4.76,6.44-3.09,12.56-6.85,19-9.82,13.73-6.28,27.6-12.26,41.44-18.33,6.29-2.75,11.34-6.56,14-13.3,2.63-6.54.74-13.33-5.48-16.67-6.4-3.44-12.91-4-19.64-.84-11.31,5.29-22.52,10.84-34.05,15.63a159.27,159.27,0,0,1-26.18,8.73c-8.35,1.87-15.11,6.33-22.42,10.12-10.86,5.64-22.1,10.58-33.3,15.54-1.32.58-3.42-.58-5.16-.94.68-1.78.84-4.33,2.13-5.21a214.62,214.62,0,0,1,19.45-12c15.76-8.36,31.48-16.81,47.62-24.37,18.36-8.6,37-16.55,55.8-24.24,8.16-3.34,12.86-9.1,15.34-17,1.64-5.27-2.15-11.63-7.19-13.87-14.11-6.26-27.33-2.1-39.58,4.48-12.82,6.9-25.7,13.22-40.05,15.94a57.45,57.45,0,0,0-23.7,10.7,160,160,0,0,1-19,11.87C360.58,509,349.77,514.19,339,519.42c-1.49.72-3.48.4-5.23.56.78-1.57,1.23-3.49,2.43-4.63,1.48-1.42,3.64-2.1,5.4-3.26q7.5-5,14.91-10.06c4.54-3.11,8.95-6.42,13.58-9.41,7.34-4.74,14.77-9.35,22.23-13.9,5.26-3.21,10.62-6.25,15.95-9.32,10.27-5.91,20.66-11.6,30.77-17.75,5.31-3.23,8.53-8.4,10.26-14.37s-1.45-13.07-7.2-14.68c-7.63-2.13-15.23-2.66-22.76,1.23q-17.7,9.15-35.75,17.64c-11.15,5.24-22.76,9.47-32.29,17.77-8.16,7.11-17.79,11.71-28.06,15.2-11.56,3.93-22.81,8.46-31.09,18.28-2.76,3.27-6.77,5.52-10.36,8-4.79,3.34-9.77,6.4-14.59,9.72-12,8.23-24.44,15.47-38.67,19.13-6.73,1.73-7.57,1-8.51-5.69-2.1-14.72.37-29.17,2.74-43.56a43.2,43.2,0,0,0-3.71-27c-2.07-4.22-4.45-8.28-6.69-12.42-3.28-6.07-8.64-9.68-14.92-11.83-8.57-2.94-16.15,3.23-14.27,11.85,3,13.85,5.67,27.53,2.16,41.79-3.25,13.24-5.9,26.6-13.22,38.42a36.59,36.59,0,0,0-5.5,18.38c-.22,5.63-.43,11.27-.77,16.9a390.93,390.93,0,0,0,92.55,155.17c12.06-5.08,23.8-10.75,34.73-18.14C307.63,683.68,321.9,673.49,336.59,663.94Z"/><path class="cls-1" d="M730.94,171.29c-11.72,13-23.12,26.36-35.07,39.18a287.08,287.08,0,0,1-22.44,21.4,160.93,160.93,0,0,1-21.31,15.95c-8.71,5.28-18.16,9.34-27.26,14-6.5,3.32-12.66,7.57-19.47,9.94-15.37,5.36-29,12.95-39.31,25.84-2.47,3.07-2.86,6.71-.19,9.57A20.84,20.84,0,0,0,588.32,312c7.65-3.19,15.09-6.86,22.73-10.09,9.1-3.84,18.38-7.27,27.44-11.21a157,157,0,0,0,15.08-7.8c7.76-4.42,15.25-9.33,23.16-13.43,1.82-.94,5.49-.18,7.27,1.17,2.52,1.9,3.24,5.2,1.29,8.34a13,13,0,0,1-2.29,3.14q-22.72,19.06-45.58,38c-3.36,2.77-7.34,4.79-10.7,7.57-5.5,4.55-10.54,9.67-16.11,14.12-11.81,9.41-23.83,18.56-35.79,27.79-5.44,4.19-9.43,9.1-10.42,16.29-1,7,2.5,13.12,9.34,14.86,7,1.8,13.49.76,19.26-3.92,9.7-7.87,19.24-16,29.27-23.39a159.9,159.9,0,0,1,23.3-14.79c7.65-3.83,13.14-9.78,19.31-15.23,9.18-8.1,18.9-15.6,28.57-23.11,1.15-.89,3.47-.26,5.24-.34-.23,1.89.23,4.41-.82,5.57a212.18,212.18,0,0,1-16,16.32c-13.27,11.91-26.49,23.91-40.33,35.15-15.74,12.77-31.95,25-48.3,37-7.12,5.21-10.28,11.94-10.77,20.22-.33,5.51,4.89,10.77,10.31,11.72,15.21,2.68,27-4.55,37.33-13.9,10.79-9.78,21.75-19,35-25.12a57.62,57.62,0,0,0,20.43-16.11A160.39,160.39,0,0,1,701.1,374.7c8.88-8.05,18.12-15.73,27.33-23.41,1.27-1.05,3.28-1.22,4.94-1.8-.38,1.71-.35,3.68-1.24,5.08-1.1,1.73-3,2.91-4.45,4.46-4.06,4.42-8.06,8.88-12,13.36-3.65,4.12-7.14,8.4-10.9,12.41-6,6.38-12.08,12.64-18.23,18.86-4.32,4.38-8.79,8.62-13.23,12.89-8.53,8.21-17.24,16.24-25.57,24.65-4.37,4.41-6.26,10.21-6.49,16.42s4.57,12.34,10.53,12.51c7.92.23,15.43-1.09,21.79-6.68q15-13.15,30.44-25.75c9.55-7.78,19.8-14.69,27-25,6.21-8.87,14.44-15.65,23.57-21.52,10.26-6.6,20.09-13.72,25.76-25.25,1.88-3.83,5.23-7,8.11-10.28,3.84-4.4,7.94-8.58,11.81-13,9.64-10.88,20-20.92,32.92-27.9,6.11-3.3,7.1-2.76,9.63,3.47,5.59,13.78,6.68,28.4,7.85,42.94a43.24,43.24,0,0,0,10.11,25.29c3,3.59,6.32,7,9.49,10.43,4.65,5.1,10.73,7.31,17.33,7.88,9,.79,14.9-7,11-14.94-6.29-12.71-12.14-25.35-12.18-40,0-13.63-.69-27.24,3.56-40.47a36.64,36.64,0,0,0,.9-19.17c-2.29-11.07-4.66-22.19-5.91-33.4A392.92,392.92,0,0,0,779.83,131.15c-2.12,1.57-4.24,3.12-6.39,4.64C758.27,146.5,743.41,157.44,730.94,171.29Z"/></svg>