<svg id="Layer_1" data-name="Layer 1" xmlns="http://www.w3.org/2000/svg" viewBox="0 0 303.63 401.59"><defs><style>.cls-1{fill:#fff;}</style></defs><path class="cls-1" d="M130.58,173.67c-7.59.37-14.76-3.42-22-7.17q-42.57-22.09-85.22-44C10,115.56.23,105.46,0,89.79-.13,80.21,1.74,70.34,4.27,61,11.72,33.5,28.69,14,55.35,3.2c11.74-4.75,23-4.3,34.17,2q46,25.74,92.17,51.09C195.81,64,201.15,76.78,200,91.74,197.72,123,183,147.6,157.29,165.46A44.1,44.1,0,0,1,130.58,173.67ZM16.1,77.14C15.8,98.6,31.46,108.33,50,97.51A73.42,73.42,0,0,0,68.68,81.64C78.37,70.19,84.73,57,83.36,41.3,82.19,28,72,20.35,58.9,22.9,37.06,27.23,16.44,53.36,16.1,77.14Z"/><path class="cls-1" d="M170.2,296.49c-.58,2.63-1.67,5.26-1.67,7.89-.06,28.4.08,56.79.08,85.19,0,7.53-3,10.38-10.51,10.24-3.45-.06-6.9-.6-10.33-.55-4.55.08-5.6-2.62-5.59-6.34.15-30.05.36-60.09.38-90.13,0-2.78-1.19-5.55-1.82-8.32l-1.9-.25c-1.24,2.22-2.81,4.33-3.7,6.69-11.54,30.74-23,61.53-34.59,92.29-2.63,7-5.5,8.2-12.56,5.74-2.41-.85-4.79-1.8-7.11-2.85-7.23-3.28-8.25-5.48-5.46-13,4.67-12.68,9.53-25.28,14.32-37.9,11.57-30.44,23.06-60.91,34.78-91.3a19.4,19.4,0,0,0-1-17.23c-6.09-11.55-5.38-23,2.53-33.45,8.31-11,19.54-15.95,33.22-13,12.68,2.76,21.43,10.44,25.08,23.23a29.49,29.49,0,0,1-.78,19,21.77,21.77,0,0,0,.27,16.22q25.39,66.47,50.67,132.94a33,33,0,0,1,1.75,5.57c.93,5.16-.82,7.89-5.79,9.6-3.4,1.16-6.85,2.23-10.15,3.63-4.91,2.09-6.81,1.64-8.77-3.35-4.12-10.47-8-21-12-31.58-8-21.2-15.92-42.42-24-63.59-.78-2.05-2.39-3.79-3.62-5.67Z"/><path class="cls-1" d="M176.36,177.13c5.41-6,10.93-11.53,15.77-17.6C203,145.82,209.79,130,215,113.43c.36-1.14.65-2.31,1.07-3.43,1.87-5.08,4.13-6,8.93-3.29,8.35,4.73,16.26,10.41,25,14.28,10.75,4.75,14.22,11.63,12.8,23.33-3,24.64-14.09,42.58-37.69,51.91a18.64,18.64,0,0,1-17.57-1.46c-9.14-5.46-18.55-10.46-27.84-15.67C178.54,178.49,177.43,177.79,176.36,177.13Z"/><path class="cls-1" d="M254.5,203.81a24.18,24.18,0,0,1,2.29-3.11c11.07-10.81,18.55-23.87,23.81-38.29,2.47-6.73,3.24-6.91,9-2.85,2.08,1.46,4.27,2.81,6.46,4.1,5.67,3.35,8.28,7.57,7.43,14.8a43.57,43.57,0,0,1-14.64,28.48c-8.61,7.74-15.94,8.27-25.8,2.25C260.23,207.48,257.53,205.72,254.5,203.81Z"/></svg>