<svg id="Layer_1" data-name="Layer 1" xmlns="http://www.w3.org/2000/svg" viewBox="0 0 462.09 611.15"><defs><style>.cls-1{fill:#fff;}</style></defs><path d="M767.66,558.74c-11.55.55-22.46-5.21-33.46-10.92q-64.79-33.62-129.68-67C584.1,470.3,569.3,454.93,569,431.08c-.21-14.58,2.64-29.59,6.48-43.77,11.31-41.88,37.13-71.59,77.7-88,17.86-7.23,35-6.54,52,3q70,39.16,140.26,77.75c21.49,11.83,29.62,31.23,27.93,54-3.54,47.52-26,85-65.06,112.18A67.1,67.1,0,0,1,767.66,558.74ZM593.45,411.84c-.45,32.66,23.38,47.46,51.6,31a112,112,0,0,0,28.42-24.16c14.74-17.42,24.42-37.47,22.33-61.39-1.77-20.19-17.34-31.87-37.22-28C625.34,335.89,594,375.65,593.45,411.84Z" transform="translate(-568.96 -294.42)"/><path d="M828,745.64c-.89,4-2.54,8-2.55,12-.09,43.22.12,86.43.13,129.64,0,11.47-4.54,15.8-16,15.59-5.24-.09-10.49-.91-15.72-.83-6.92.11-8.52-3.95-8.5-9.65.23-45.73.55-91.45.57-137.17,0-4.22-1.8-8.44-2.77-12.66l-2.88-.37c-1.9,3.38-4.28,6.58-5.63,10.17C757.08,799.14,739.64,846,722,892.81c-4,10.63-8.37,12.48-19.11,8.73-3.67-1.28-7.29-2.73-10.82-4.33-11-5-12.56-8.34-8.31-19.85,7.11-19.29,14.5-38.46,21.8-57.67,17.6-46.33,35.09-92.7,52.92-138.94,3.56-9.25,3.15-17.43-1.49-26.22-9.27-17.57-8.18-35,3.85-50.9,12.65-16.73,29.73-24.27,50.56-19.73,19.29,4.21,32.61,15.89,38.16,35.35a44.82,44.82,0,0,1-1.19,28.93c-3.22,8.39-2.72,16.44.42,24.68Q887.43,774,925.89,875.18a49.48,49.48,0,0,1,2.66,8.47c1.42,7.85-1.24,12-8.81,14.61-5.17,1.77-10.42,3.39-15.44,5.52-7.47,3.19-10.36,2.5-13.34-5.09-6.27-15.94-12.17-32-18.21-48.06-12.15-32.27-24.23-64.56-36.52-96.78-1.19-3.12-3.64-5.76-5.51-8.62Z" transform="translate(-568.96 -294.42)"/><path d="M837.33,564c8.23-9.13,16.64-17.54,24-26.79,16.54-20.86,26.87-45,34.83-70.15.55-1.74,1-3.51,1.63-5.22,2.85-7.73,6.29-9.16,13.59-5,12.71,7.19,24.74,15.84,38,21.72,16.36,7.23,21.64,17.71,19.48,35.51-4.55,37.49-21.45,64.8-57.36,79.05-9.45,3.74-18,3-26.74-2.23-13.91-8.3-28.23-15.92-42.36-23.84C840.65,566.07,839,565,837.33,564Z" transform="translate(-568.96 -294.42)"/><path d="M956.24,604.6a38,38,0,0,1,3.49-4.74c16.85-16.46,28.21-36.32,36.27-58.26,3.76-10.24,4.93-10.51,13.67-4.34,3.17,2.23,6.49,4.27,9.83,6.24,8.63,5.1,12.6,11.52,11.3,22.52-2.06,17.6-9.4,31.79-22.28,43.35-13.1,11.77-24.25,12.58-39.25,3.41C965,610.19,960.86,607.5,956.24,604.6Z" transform="translate(-568.96 -294.42)"/><path class="cls-1" d="M593.45,411.84c.5-36.19,31.89-75.95,65.13-82.5,19.88-3.91,35.45,7.77,37.22,28,2.09,23.92-7.59,44-22.33,61.39a112,112,0,0,1-28.42,24.16C616.83,459.3,593,444.5,593.45,411.84Z" transform="translate(-568.96 -294.42)"/></svg>